<svg width="320" height="240" viewBox="0 0 320 240" fill="none" xmlns="http://www.w3.org/2000/svg" role="img" aria-label="Pan-India moving">
  <ellipse cx="160" cy="216" rx="120" ry="14" fill="#0B1838" fill-opacity="0.06"/>
  <!-- simplified india silhouette -->
  <path d="M118 40 c26-6 44 2 52 16 c14-4 30 4 30 18 c14 6 18 20 10 30 c8 12 2 26-10 30 c-2 18-16 34-30 46 c-10 30-22 44-30 44 c-8 0-14-16-14-34 c-16-8-30-22-34-40 c-16-6-24-22-18-36 c-10-10-8-26 4-32 c-2-16 8-28 24-30 c2-6 6-10 12-14 Z"
        fill="#F7F1E6" stroke="#0B1838" stroke-width="4" stroke-linejoin="round"/>
  <!-- route -->
  <path d="M120 96 C 150 120, 96 150, 150 176" stroke="#F26522" stroke-width="4" stroke-linecap="round" stroke-dasharray="1 12" fill="none"/>
  <!-- source pin (hyderabad) -->
  <g transform="translate(120 96)">
    <circle r="12" fill="#0B1838"/><circle r="5" fill="#FFFFFF"/>
  </g>
  <!-- destination pins -->
  <g fill="#F26522">
    <g transform="translate(150 176)"><path d="M0 0c-9 0-16 7-16 16 0 11 16 26 16 26s16-15 16-26C16 7 9 0 0 0z"/><circle cy="16" r="6" fill="#fff"/></g>
    <g transform="translate(196 78) scale(0.8)"><path d="M0 0c-9 0-16 7-16 16 0 11 16 26 16 26s16-15 16-26C16 7 9 0 0 0z"/><circle cy="16" r="6" fill="#fff"/></g>
  </g>
</svg>
