<svg width="320" height="240" viewBox="0 0 320 240" fill="none" xmlns="http://www.w3.org/2000/svg" role="img" aria-label="Home shifting">
  <ellipse cx="160" cy="212" rx="118" ry="16" fill="#0B1838" fill-opacity="0.06"/>
  <!-- house -->
  <path d="M92 108 L160 58 L228 108 V196 a8 8 0 0 1-8 8 H100 a8 8 0 0 1-8-8 Z" fill="#F7F1E6"/>
  <path d="M82 112 L160 54 L238 112" stroke="#0B1838" stroke-width="9" stroke-linecap="round" stroke-linejoin="round" fill="none"/>
  <path d="M160 58 L228 108 V196 a8 8 0 0 1-8 8 H160 Z" fill="#0B1838" fill-opacity="0.05"/>
  <!-- door -->
  <rect x="146" y="150" width="30" height="54" rx="4" fill="#0B1838"/>
  <circle cx="169" cy="178" r="2.6" fill="#F26522"/>
  <!-- window -->
  <rect x="104" y="126" width="30" height="30" rx="4" fill="#BFE0FF"/>
  <path d="M119 126v30 M104 141h30" stroke="#0B1838" stroke-width="3"/>
  <!-- chimney -->
  <rect x="200" y="74" width="16" height="26" rx="2" fill="#F26522"/>
  <!-- moving box in front -->
  <g transform="translate(196 150)">
    <rect x="0" y="16" width="62" height="52" rx="6" fill="#F0C48F"/>
    <path d="M0 34h62" stroke="#C9924F" stroke-width="3"/>
    <path d="M8 16 L31 4 L54 16" stroke="#C9924F" stroke-width="3" fill="none" stroke-linecap="round"/>
    <rect x="24" y="16" width="14" height="18" rx="2" fill="#C9924F"/>
  </g>
</svg>
