<svg width="320" height="240" viewBox="0 0 320 240" fill="none" xmlns="http://www.w3.org/2000/svg" role="img" aria-label="Car and bike transport">
  <ellipse cx="160" cy="212" rx="130" ry="16" fill="#0B1838" fill-opacity="0.06"/>
  <!-- carrier trailer bed -->
  <rect x="24" y="150" width="272" height="16" rx="6" fill="#0B1838"/>
  <path d="M30 118 h236 a8 8 0 0 1 8 8 v24 h-252 v-24 a8 8 0 0 1 8-8 Z" fill="#12233F"/>
  <!-- ramp -->
  <path d="M266 150 L308 120" stroke="#F26522" stroke-width="8" stroke-linecap="round"/>
  <!-- car on carrier -->
  <g transform="translate(70 74)">
    <path d="M6 44 C 10 22 26 14 54 14 h44 c22 0 34 8 46 26 l14 4 c8 2 12 8 12 16 v6 a6 6 0 0 1-6 6 H2 a6 6 0 0 1-6-6 v-14 c0-10 4-16 10-18 Z" fill="#F26522"/>
    <path d="M28 24 h34 v18 H16 c2-10 6-16 12-18 Z" fill="#BFE0FF"/>
    <path d="M70 24 h24 c14 0 22 6 30 18 H70 Z" fill="#BFE0FF"/>
    <circle cx="46" cy="82" r="18" fill="#0B1838"/><circle cx="46" cy="82" r="8" fill="#3A4C6B"/>
    <circle cx="132" cy="82" r="18" fill="#0B1838"/><circle cx="132" cy="82" r="8" fill="#3A4C6B"/>
  </g>
  <!-- trailer wheels -->
  <circle cx="86" cy="176" r="18" fill="#0B1838"/><circle cx="86" cy="176" r="7" fill="#3A4C6B"/>
  <circle cx="230" cy="176" r="18" fill="#0B1838"/><circle cx="230" cy="176" r="7" fill="#3A4C6B"/>
  <!-- straps -->
  <path d="M96 90 v46 M188 90 v46" stroke="#F7F1E6" stroke-width="4" stroke-linecap="round" stroke-dasharray="6 6"/>
</svg>
